<svg width="137" height="115" viewBox="0 0 137 115" fill="none" xmlns="http://www.w3.org/2000/svg">
<path d="M128.78 0H8.22C6.03992 0 3.94913 0.86543 2.40758 2.40591C0.866033 3.94639 0 6.03572 0 8.21429V106.786C0 108.964 0.866033 111.054 2.40758 112.594C3.94913 114.135 6.03992 115 8.22 115H128.78C130.96 115 133.051 114.135 134.592 112.594C136.134 111.054 137 108.964 137 106.786V8.21429C137 6.03572 136.134 3.94639 134.592 2.40591C133.051 0.86543 130.96 0 128.78 0ZM8.22 5.47619H128.78C129.507 5.47619 130.204 5.76467 130.717 6.27816C131.231 6.79165 131.52 7.4881 131.52 8.21429V85.1548L108.99 62.6408C108.227 61.875 107.319 61.2674 106.32 60.8528C105.321 60.4382 104.25 60.2248 103.168 60.2248C102.086 60.2248 101.015 60.4382 100.016 60.8528C99.0164 61.2674 98.109 61.875 97.3454 62.6408L81.7068 78.2685L49.6351 46.2122C48.8714 45.4464 47.964 44.8388 46.9648 44.4242C45.9657 44.0096 44.8945 43.7962 43.8126 43.7962C42.7307 43.7962 41.6595 44.0096 40.6604 44.4242C39.6612 44.8388 38.7538 45.4464 37.9901 46.2122L5.48 78.7202V8.21429C5.48 7.4881 5.76868 6.79165 6.28253 6.27816C6.79638 5.76467 7.49331 5.47619 8.22 5.47619ZM5.48 106.786V86.4827L41.9014 50.0866C42.1559 49.832 42.4581 49.6301 42.7907 49.4923C43.1234 49.3545 43.4799 49.2836 43.84 49.2836C44.2001 49.2836 44.5566 49.3545 44.8893 49.4923C45.2219 49.6301 45.5241 49.832 45.7786 50.0866L105.257 109.524H8.22C7.49331 109.524 6.79638 109.235 6.28253 108.722C5.76868 108.208 5.48 107.512 5.48 106.786ZM128.78 109.524H113.025L85.625 82.1429L101.264 66.5152C101.518 66.2606 101.82 66.0586 102.153 65.9208C102.485 65.7831 102.842 65.7121 103.202 65.7121C103.562 65.7121 103.919 65.7831 104.251 65.9208C104.584 66.0586 104.886 66.2606 105.141 66.5152L131.52 92.8967V106.786C131.52 107.512 131.231 108.208 130.717 108.722C130.204 109.235 129.507 109.524 128.78 109.524ZM82.2 38.3333C82.2 37.2502 82.5214 36.1915 83.1235 35.2909C83.7257 34.3904 84.5816 33.6885 85.5829 33.274C86.5842 32.8595 87.6861 32.7511 88.7491 32.9624C89.8121 33.1737 90.7886 33.6952 91.5549 34.4611C92.3213 35.2269 92.8433 36.2027 93.0547 37.265C93.2662 38.3273 93.1576 39.4283 92.7429 40.429C92.3281 41.4296 91.6257 42.2849 90.7245 42.8866C89.8233 43.4884 88.7638 43.8095 87.68 43.8095C86.2266 43.8095 84.8328 43.2326 83.8051 42.2056C82.7774 41.1786 82.2 39.7857 82.2 38.3333Z" fill="#0C0C0C" fill-opacity="0.5"/>
</svg>
