<svg width="121" height="40" viewBox="0 0 121 40" fill="none" xmlns="http://www.w3.org/2000/svg">
<path d="M3.92097 30C3.45626 30 3.09805 29.8741 2.84633 29.6224C2.59462 29.3707 2.46876 29.0125 2.46876 28.5478V10.976C2.46876 10.5113 2.59462 10.1531 2.84633 9.9014C3.09805 9.64968 3.45626 9.52383 3.92097 9.52383H9.5265C12.8763 9.52383 15.4515 10.4048 17.2523 12.1669C19.0724 13.9095 19.9824 16.4363 19.9824 19.7474C19.9824 21.3932 19.7501 22.8551 19.2854 24.1331C18.8207 25.411 18.143 26.4856 17.2523 27.357C16.3616 28.2089 15.2676 28.8673 13.9703 29.332C12.6923 29.7773 11.2111 30 9.5265 30H3.92097ZM5.16987 27.7055H9.35224C10.6689 27.7055 11.8113 27.5409 12.7795 27.2118C13.7476 26.8826 14.5512 26.3888 15.1901 25.7305C15.8485 25.0722 16.3422 24.2492 16.6714 23.2617C17.0005 22.2549 17.1651 21.0834 17.1651 19.7474C17.1651 17.0947 16.5068 15.11 15.1901 13.7933C13.8928 12.4767 11.9469 11.8183 9.35224 11.8183H5.16987V27.7055ZM30.3532 30.2614C28.8236 30.2614 27.5069 29.971 26.4032 29.3901C25.3189 28.7898 24.4766 27.9475 23.8764 26.8632C23.2761 25.7595 22.976 24.4622 22.976 22.9713C22.976 21.4997 23.2665 20.2121 23.8473 19.1084C24.4476 18.0047 25.2608 17.1431 26.2871 16.5235C27.3327 15.9039 28.5235 15.5941 29.8595 15.5941C30.8083 15.5941 31.6602 15.7587 32.4154 16.0878C33.1899 16.3976 33.8482 16.8527 34.3904 17.4529C34.9326 18.0531 35.3392 18.7889 35.6103 19.6603C35.9007 20.5122 36.0459 21.4804 36.0459 22.5647C36.0459 22.8745 35.9491 23.1165 35.7555 23.2908C35.5812 23.4457 35.3198 23.5231 34.9713 23.5231H25.0382V21.8386H34.3033L33.8095 22.2452C33.8095 21.2383 33.6546 20.3864 33.3448 19.6893C33.0544 18.9729 32.6187 18.4307 32.0378 18.0628C31.4763 17.6949 30.7695 17.511 29.9176 17.511C28.9882 17.511 28.1943 17.7337 27.536 18.179C26.8776 18.605 26.3742 19.2149 26.0257 20.0088C25.6771 20.7833 25.5029 21.6837 25.5029 22.7099V22.8842C25.5029 24.6268 25.9192 25.9435 26.7518 26.8342C27.5844 27.7249 28.7849 28.1702 30.3532 28.1702C30.9729 28.1702 31.6022 28.0928 32.2411 27.9379C32.8995 27.783 33.5288 27.5022 34.129 27.0956C34.4194 26.9213 34.6808 26.8439 34.9132 26.8632C35.1649 26.8632 35.3682 26.9407 35.5231 27.0956C35.678 27.2311 35.7748 27.4054 35.8136 27.6184C35.8523 27.812 35.8232 28.025 35.7264 28.2573C35.6296 28.4897 35.4457 28.693 35.1746 28.8673C34.5356 29.3126 33.7708 29.6612 32.8801 29.9129C32.0088 30.1452 31.1665 30.2614 30.3532 30.2614ZM44.5078 30.2033C44.1399 30.2033 43.8204 30.1065 43.5493 29.9129C43.2782 29.7192 43.0459 29.4094 42.8522 28.9835L37.9147 17.4819C37.7792 17.1528 37.7308 16.8527 37.7695 16.5816C37.8082 16.3105 37.9341 16.0878 38.1471 15.9136C38.3794 15.7393 38.6892 15.6522 39.0765 15.6522C39.4057 15.6522 39.6671 15.7296 39.8607 15.8845C40.0543 16.0394 40.2383 16.3105 40.4125 16.6977L44.9725 27.9379H44.1592L48.8354 16.6977C48.9903 16.3105 49.1645 16.0394 49.3582 15.8845C49.5711 15.7296 49.8616 15.6522 50.2295 15.6522C50.5586 15.6522 50.8104 15.7393 50.9846 15.9136C51.1783 16.0878 51.2944 16.3105 51.3332 16.5816C51.3719 16.8527 51.3138 17.1431 51.1589 17.4529L46.1923 28.9835C46.0181 29.4094 45.7857 29.7192 45.4953 29.9129C45.2242 30.1065 44.895 30.2033 44.5078 30.2033ZM55.968 30C55.5033 30 55.1451 29.8741 54.8933 29.6224C54.6416 29.3707 54.5158 29.0125 54.5158 28.5478V10.976C54.5158 10.5113 54.6416 10.1531 54.8933 9.9014C55.1451 9.64968 55.5033 9.52383 55.968 9.52383H62.8515C64.2649 9.52383 65.4654 9.73682 66.4529 10.1628C67.4598 10.5888 68.2246 11.1987 68.7474 11.9926C69.2702 12.7865 69.5316 13.7449 69.5316 14.868C69.5316 16.1265 69.1637 17.1818 68.4279 18.0338C67.6922 18.8857 66.6853 19.4569 65.4073 19.7474V19.3117C66.8402 19.486 67.9632 20.0185 68.7765 20.9092C69.6091 21.7805 70.0254 22.9229 70.0254 24.3364C70.0254 26.1565 69.4251 27.5603 68.2246 28.5478C67.0435 29.5159 65.3686 30 63.2 30H55.968ZM57.1297 27.8798H62.9095C64.4198 27.8798 65.5429 27.5893 66.2787 27.0084C67.0145 26.4082 67.3824 25.4981 67.3824 24.2783C67.3824 23.0584 67.0145 22.1581 66.2787 21.5772C65.5429 20.9963 64.4198 20.7059 62.9095 20.7059H57.1297V27.8798ZM57.1297 18.5566H62.4448C63.9164 18.5566 65.0201 18.2661 65.7559 17.6853C66.511 17.085 66.8886 16.2234 66.8886 15.1003C66.8886 13.9773 66.511 13.1253 65.7559 12.5444C65.0201 11.9442 63.9164 11.6441 62.4448 11.6441H57.1297V18.5566ZM78.3236 30.2614C76.8714 30.2614 75.7677 29.8354 75.0126 28.9835C74.2574 28.1121 73.8799 26.8632 73.8799 25.2367V10.6566C73.8799 10.2112 73.996 9.88204 74.2284 9.66905C74.4607 9.43669 74.7802 9.32052 75.1869 9.32052C75.6128 9.32052 75.942 9.43669 76.1744 9.66905C76.4067 9.88204 76.5229 10.2112 76.5229 10.6566V25.0334C76.5229 26.0403 76.7262 26.7955 77.1328 27.2989C77.5588 27.783 78.159 28.025 78.9336 28.025C79.1078 28.025 79.2627 28.025 79.3983 28.025C79.5338 28.0056 79.6693 27.9863 79.8049 27.9669C80.0179 27.9475 80.1728 28.0056 80.2696 28.1412C80.3664 28.2767 80.4148 28.5478 80.4148 28.9544C80.4148 29.3223 80.3277 29.6127 80.1534 29.8257C79.9985 30.0194 79.7371 30.1452 79.3692 30.2033C79.195 30.2227 79.0207 30.2324 78.8464 30.2324C78.6722 30.2517 78.4979 30.2614 78.3236 30.2614Z" fill="#0C0C0C"/>
<path d="M111.231 35.4894C110.185 35.4894 109.169 35.3732 108.181 35.1408C107.213 34.9085 106.332 34.5503 105.538 34.0662C105.287 33.9113 105.112 33.7273 105.015 33.5144C104.938 33.3207 104.919 33.1174 104.957 32.9044C105.015 32.6914 105.112 32.4978 105.248 32.3235C105.403 32.1686 105.577 32.0621 105.771 32.0041C105.984 31.9653 106.197 32.0137 106.41 32.1493C107.262 32.6333 108.075 32.9625 108.849 33.1368C109.624 33.311 110.36 33.3982 111.057 33.3982C112.431 33.3982 113.458 33.04 114.135 32.3235C114.832 31.6265 115.181 30.6002 115.181 29.2449V26.1081H115.442C115.171 27.1924 114.561 28.054 113.613 28.693C112.683 29.332 111.599 29.6515 110.36 29.6515C109.082 29.6515 107.968 29.361 107.019 28.7801C106.071 28.1799 105.335 27.357 104.812 26.3114C104.289 25.2464 104.028 24.0169 104.028 22.6228C104.028 21.5578 104.173 20.5994 104.464 19.7474C104.773 18.8761 105.199 18.1403 105.742 17.54C106.303 16.9204 106.971 16.446 107.746 16.1169C108.52 15.7683 109.391 15.5941 110.36 15.5941C111.618 15.5941 112.712 15.9136 113.642 16.5525C114.571 17.1915 115.171 18.0531 115.442 19.1375L115.123 19.5441V16.9882C115.123 16.5428 115.239 16.2137 115.471 16.0007C115.704 15.7683 116.033 15.6522 116.459 15.6522C116.865 15.6522 117.185 15.7683 117.417 16.0007C117.65 16.2137 117.766 16.5428 117.766 16.9882V28.8963C117.766 31.0843 117.204 32.7302 116.081 33.8338C114.978 34.9375 113.361 35.4894 111.231 35.4894ZM110.94 27.5603C111.812 27.5603 112.557 27.3667 113.177 26.9794C113.816 26.5728 114.3 26.0016 114.629 25.2658C114.978 24.5106 115.152 23.6296 115.152 22.6228C115.152 21.0931 114.774 19.8926 114.019 19.0213C113.264 18.1306 112.238 17.6853 110.94 17.6853C110.069 17.6853 109.314 17.8886 108.675 18.2952C108.055 18.6824 107.571 19.244 107.223 19.9797C106.874 20.7155 106.7 21.5965 106.7 22.6228C106.7 24.1331 107.078 25.3336 107.833 26.2243C108.607 27.1149 109.643 27.5603 110.94 27.5603Z" fill="#0C0C0C"/>
<path fill-rule="evenodd" clip-rule="evenodd" d="M86.7697 15C85.2508 15 84.0195 16.2313 84.0195 17.7501V27.9214C84.0195 27.9908 84.0221 28.0597 84.0272 28.1278C84.0106 28.1494 83.9945 28.1715 83.979 28.1943L83.863 28.3646C83.8334 28.4082 83.8065 28.453 83.7824 28.4989L83.4506 29.0145L82.3018 30.4425L81.5227 31.2495C81.4938 31.2795 81.4662 31.3107 81.4402 31.3432L81.3033 31.5135C80.9718 31.926 80.9064 32.492 81.1351 32.9692C81.3637 33.4464 81.8459 33.75 82.3751 33.75H84.1564C84.2802 33.75 84.4033 33.7333 84.5226 33.7004L85.7559 33.3597C85.8408 33.3362 85.9232 33.3047 86.002 33.2655L87.3724 32.5841C87.4143 32.5633 87.4552 32.5403 87.4948 32.5152L88.4541 31.9089C88.5527 31.8466 88.6429 31.772 88.7226 31.6869L89.6745 30.6715H97.4398C98.9587 30.6715 100.19 29.4402 100.19 27.9214V17.7501C100.19 16.2313 98.9587 15 97.4398 15H86.7697Z" fill="#0C0C0C"/>
</svg>
